<?xml version="1.0" standalone="no"?>
<!DOCTYPE svg PUBLIC "-//W3C//DTD SVG 20010904//EN"
 "http://www.w3.org/TR/2001/REC-SVG-20010904/DTD/svg10.dtd">
<svg version="1.0" xmlns="http://www.w3.org/2000/svg"
 width="260.000000pt" height="260.000000pt" viewBox="0 0 260.000000 260.000000"
 preserveAspectRatio="xMidYMid meet">
<metadata>
Created by potrace 1.11, written by Peter Selinger 2001-2013
</metadata>
<g transform="translate(0.000000,260.000000) scale(0.100000,-0.100000)"
fill="#000000" stroke="none">
<path d="M1298 2588 c-2 -7 -3 -85 -3 -173 1 -150 0 -161 -19 -176 -19 -16
-20 -20 -8 -51 12 -31 8 -50 -50 -255 -36 -129 -68 -223 -75 -223 -16 0 -43
-28 -43 -45 0 -38 23 -42 218 -41 200 1 225 7 215 47 -5 19 -36 43 -45 34 -3
-3 -35 99 -72 226 -61 212 -65 233 -51 249 17 18 11 49 -12 63 -9 5 -13 31
-13 81 l0 74 118 32 c64 17 118 33 120 35 2 1 -51 17 -118 35 -96 26 -120 37
-120 51 0 41 -32 69 -42 37z"/>
<path d="M672 2225 c-19 -30 -28 -35 -60 -35 -52 0 -56 -7 -26 -43 19 -22 24
-37 19 -56 -19 -79 -23 -72 29 -55 45 15 46 15 80 -11 31 -24 35 -25 40 -8 3
10 3 30 1 45 -4 22 1 32 30 55 19 15 35 31 35 35 0 3 -17 10 -37 15 -31 7 -41
16 -57 51 -11 23 -22 42 -25 42 -3 0 -16 -16 -29 -35z"/>
<path d="M2116 2242 c-2 -4 13 -30 35 -57 21 -28 39 -55 39 -61 0 -6 -20 -21
-44 -33 -41 -22 -45 -22 -74 -7 -50 26 -70 16 -36 -18 9 -9 17 -22 18 -29 1
-6 7 -21 13 -32 12 -21 13 -26 13 -51 0 -27 23 -10 35 27 10 28 21 37 59 51
46 18 47 18 55 -5 7 -18 18 -83 20 -120 2 -20 41 16 41 38 0 14 5 25 11 25 5
0 9 8 7 18 -1 9 1 22 5 29 4 6 3 14 -3 18 -5 3 -10 15 -10 26 0 14 15 26 54
43 54 24 83 56 70 77 -8 14 -75 4 -116 -17 -31 -16 -58 -6 -58 22 0 8 -6 14
-14 14 -8 0 -17 7 -20 16 -3 9 -13 14 -20 11 -8 -3 -20 1 -26 9 -13 15 -46 19
-54 6z"/>
<path d="M397 2159 c-7 -24 25 -40 48 -23 10 8 13 14 7 14 -7 0 -12 6 -12 13
0 19 -38 16 -43 -4z"/>
<path d="M385 2069 c-5 -20 -16 -34 -33 -40 -26 -10 -26 -11 -8 -25 11 -8 23
-14 28 -14 4 0 8 -8 8 -17 0 -10 5 -25 10 -33 9 -13 13 -12 28 5 11 13 26 19
46 17 26 -3 28 -1 22 20 -9 29 -9 37 0 67 6 22 5 23 -18 18 -18 -5 -32 -1 -48
13 -13 11 -24 20 -26 20 -1 0 -5 -14 -9 -31z"/>
<path d="M650 2000 c0 -6 9 -38 21 -72 25 -75 75 -152 140 -217 57 -57 156
-127 166 -117 4 3 -16 30 -43 59 -95 98 -151 188 -174 278 -9 35 -19 48 -46
62 -39 19 -64 22 -64 7z"/>
<path d="M1020 1990 c0 -5 -14 -10 -31 -10 -27 0 -31 -3 -26 -22 4 -12 1 -28
-5 -35 -13 -16 -8 -22 23 -28 13 -3 25 -9 27 -15 6 -18 22 -11 32 15 5 14 16
25 25 25 20 0 19 10 -2 26 -10 7 -19 17 -19 23 -1 6 -2 16 -3 21 0 6 -5 10
-11 10 -5 0 -10 -4 -10 -10z"/>
<path d="M884 1962 c-6 -4 -13 -14 -17 -24 -7 -20 33 -34 45 -15 11 17 10 27
-3 27 -5 0 -7 5 -4 10 7 12 -5 13 -21 2z"/>
<path d="M429 1924 c-12 -15 -8 -21 31 -55 40 -34 147 -99 164 -99 3 0 -33 38
-80 85 -47 47 -89 85 -94 85 -4 0 -14 -7 -21 -16z"/>
<path d="M935 1861 c-3 -6 -6 -38 -6 -71 -1 -61 28 -133 58 -144 16 -7 16 -2
-2 56 -12 42 -14 103 -3 148 4 17 -37 27 -47 11z"/>
<path d="M206 1727 c5 -39 3 -46 -25 -68 -17 -13 -31 -27 -31 -31 0 -3 19 -9
41 -13 36 -6 44 -12 58 -46 9 -21 19 -39 22 -39 3 0 14 16 25 35 10 19 19 35
19 35 0 1 18 3 40 6 22 4 42 8 44 10 3 2 -8 17 -23 33 -25 26 -27 33 -21 76
l8 47 -31 -16 c-39 -20 -63 -20 -88 -1 -34 26 -43 19 -38 -28z"/>
<path d="M385 1725 c-3 -8 -7 -21 -9 -29 -10 -31 31 -50 107 -49 61 1 129 -7
247 -30 14 -3 58 -14 98 -25 39 -11 72 -17 72 -13 0 15 -222 101 -336 130
-117 29 -173 35 -179 16z"/>
<path d="M1658 1683 c-3 -4 -4 -63 -3 -131 1 -106 -2 -125 -17 -139 -16 -14
-16 -19 -4 -38 11 -17 12 -28 2 -55 -6 -19 -29 -97 -51 -172 -29 -103 -43
-139 -57 -144 -24 -7 -25 -53 0 -55 9 -1 77 -2 151 -3 102 -1 138 2 148 13 17
17 13 33 -14 45 -14 7 -26 30 -39 80 -10 39 -19 76 -19 81 0 6 -3 15 -7 20 -3
6 -16 46 -28 90 -18 63 -20 83 -10 98 9 15 8 23 -6 38 -16 18 -24 102 -11 115
2 3 38 14 78 25 41 12 77 24 81 28 4 4 -31 17 -77 30 -47 14 -86 29 -86 35 -1
6 -2 17 -3 25 -1 16 -22 26 -28 14z"/>
<path d="M1183 1586 c-4 -5 -7 -30 -7 -55 l0 -46 139 0 140 0 0 55 0 55 -133
0 c-74 0 -136 -4 -139 -9z"/>
<path d="M497 1549 c-9 -10 -12 -19 -7 -19 6 0 10 -6 10 -14 0 -9 7 -12 20 -9
23 6 26 28 7 48 -12 11 -17 10 -30 -6z"/>
<path d="M680 1526 c0 -14 3 -26 8 -27 48 -5 231 -5 225 1 -15 13 -117 40
-175 46 -58 7 -58 7 -58 -20z"/>
<path d="M637 1532 c-5 -7 -22 -12 -40 -10 -29 3 -32 1 -29 -24 2 -14 -2 -29
-7 -33 -19 -11 -12 -25 13 -25 13 0 26 -7 30 -15 8 -21 24 -19 31 5 3 11 15
20 26 20 23 0 25 13 5 30 -8 6 -16 24 -18 38 -2 19 -6 23 -11 14z"/>
<path d="M1142 1388 c3 -69 4 -73 28 -78 l25 -5 0 -652 -1 -653 128 0 128 0 2
657 c3 613 4 658 20 655 24 -4 34 24 33 88 0 49 -2 55 -22 58 -19 3 -23 -1
-23 -22 0 -19 -5 -26 -20 -26 -11 0 -19 3 -19 8 4 26 -3 42 -21 42 -15 0 -20
-7 -20 -25 0 -18 -5 -25 -20 -25 -11 0 -19 3 -19 8 4 26 -3 42 -21 42 -15 0
-20 -7 -20 -25 0 -18 -5 -25 -20 -25 -15 0 -20 7 -20 25 0 18 -5 25 -20 25
-15 0 -20 -7 -20 -25 0 -18 -5 -25 -20 -25 -15 0 -20 7 -20 25 0 19 -5 25 -20
25 -19 0 -21 -5 -18 -72z m219 -215 c9 -10 14 -44 15 -95 l1 -79 -53 2 c-61 3
-62 5 -58 99 3 47 8 68 21 77 24 18 58 16 74 -4z"/>
<path d="M1030 1076 c0 -57 -4 -97 -11 -102 -6 -3 -8 -17 -5 -30 9 -34 -52
-245 -77 -265 -16 -14 -17 -17 -5 -30 11 -11 39 -14 114 -13 54 1 102 3 107 3
13 2 7 41 -7 41 -20 0 -89 249 -74 268 9 11 9 16 -3 22 -10 6 -14 25 -14 62
l0 53 53 14 c28 8 52 17 52 21 0 5 -23 13 -50 20 -28 7 -53 16 -56 21 -16 27
-24 -1 -24 -85z"/>
<path d="M1571 920 c-4 -3 -7 -22 -7 -42 0 -42 -9 -39 121 -39 103 0 96 -4 93
43 l-3 43 -98 0 c-54 0 -102 -2 -106 -5z"/>
<path d="M1530 765 c0 -63 -21 -56 168 -58 l107 -1 3 58 c3 51 1 57 -15 54
-11 -2 -17 -11 -15 -21 2 -10 -4 -17 -13 -17 -8 0 -15 9 -15 20 0 11 -7 20
-15 20 -14 0 -19 -12 -16 -32 0 -5 -6 -8 -14 -8 -9 0 -15 9 -15 21 0 14 -5 19
-17 17 -10 -2 -18 -10 -18 -17 0 -18 -25 -27 -26 -9 -1 7 -1 16 0 21 0 4 -8 7
-19 7 -14 0 -20 -7 -20 -21 0 -12 -5 -19 -12 -16 -7 2 -12 12 -12 21 1 10 -6
16 -17 16 -16 0 -19 -8 -19 -55z"/>
<path d="M1579 673 c-1 -5 -2 -158 -3 -340 l-1 -333 98 0 97 0 0 340 0 340
-95 0 c-52 0 -96 -3 -96 -7z"/>
<path d="M959 616 c-1 -1 -3 -139 -3 -308 l-2 -308 88 0 88 0 0 308 0 309 -85
0 c-47 -1 -86 -1 -86 -1z"/>
<path d="M1960 573 l0 -33 105 0 c63 0 105 4 106 10 7 58 12 55 -104 55 l-107
1 0 -33z"/>
<path d="M1906 463 c1 -32 2 -61 3 -66 0 -4 72 -6 159 -5 l157 3 3 63 c3 57 1
62 -18 62 -13 0 -20 -7 -20 -18 0 -10 -3 -22 -7 -25 -10 -11 -32 13 -26 29 3
9 -2 14 -16 14 -14 0 -21 -6 -21 -18 0 -10 -3 -22 -7 -25 -10 -11 -32 13 -26
29 9 23 -31 17 -42 -7 -10 -22 -29 -27 -31 -9 -1 6 -2 15 -3 21 -2 19 -36 4
-36 -15 0 -11 -8 -20 -17 -22 -10 -1 -17 1 -17 4 4 26 -4 42 -19 42 -15 0 -17
-9 -16 -57z"/>
<path d="M1960 185 l0 -185 108 0 107 0 -1 173 c-1 94 -2 178 -3 185 -1 9 -29
12 -106 12 l-105 0 0 -185z"/>
</g>
</svg>
